<?xml version="1.0" standalone="no"?>
<!DOCTYPE svg PUBLIC "-//W3C//DTD SVG 20010904//EN"
 "http://www.w3.org/TR/2001/REC-SVG-20010904/DTD/svg10.dtd">
<svg version="1.0" xmlns="http://www.w3.org/2000/svg"
 width="225.000000pt" height="225.000000pt" viewBox="0 0 225.000000 225.000000"
 preserveAspectRatio="xMidYMid meet">
<metadata>
Created by potrace 1.14, written by Peter Selinger 2001-2017
</metadata>
<g transform="translate(0.000000,225.000000) scale(0.100000,-0.100000)"
fill="#000000" stroke="none">
<path d="M339 2221 l-29 -29 0 -1067 0 -1067 29 -29 29 -29 757 0 757 0 29 29
29 29 0 835 0 834 -191 219 c-105 120 -210 238 -232 262 l-41 42 -554 0 -554
0 -29 -29z m1081 -294 c0 -168 3 -236 12 -245 9 -9 70 -12 215 -12 l203 0 0
-460 0 -460 -725 0 -725 0 0 705 0 705 510 0 510 0 0 -233z m-560 -1337 l0
-50 -75 0 -75 0 0 -215 0 -215 -60 0 -60 0 0 215 0 215 -70 0 -70 0 0 50 0 50
205 0 205 0 0 -50z m229 -42 l42 -91 35 79 c20 43 38 85 41 92 3 8 29 12 75
12 38 0 67 -3 65 -7 -111 -194 -137 -242 -137 -253 0 -7 34 -71 75 -141 l74
-129 -69 0 -70 0 -48 95 -48 96 -39 -92 c-21 -50 -44 -93 -51 -96 -6 -2 -38
-3 -72 -1 l-60 3 52 90 c29 50 63 109 75 132 l24 41 -72 126 c-39 69 -71 128
-71 131 0 3 31 5 69 5 l68 0 42 -92z m711 42 l0 -50 -70 0 -70 0 0 -215 0
-215 -65 0 -65 0 0 215 0 215 -70 0 -70 0 0 50 0 50 205 0 205 0 0 -50z"/>
<path d="M687 1687 c-13 -35 5 -37 274 -35 256 3 264 4 264 23 0 19 -8 20
-266 23 -217 2 -268 0 -272 -11z"/>
<path d="M690 1455 c-10 -12 -10 -18 0 -30 11 -13 68 -15 429 -13 398 3 416 4
419 22 2 10 -2 22 -10 27 -7 5 -196 9 -419 9 -349 0 -408 -2 -419 -15z"/>
<path d="M687 1217 c-14 -36 0 -37 429 -35 411 3 419 3 419 23 0 20 -8 20
-421 23 -347 2 -423 0 -427 -11z"/>
<path d="M686 981 c-4 -5 -3 -16 0 -25 6 -15 49 -16 428 -14 l421 3 3 23 3 22
-425 0 c-244 0 -427 -4 -430 -9z"/>
</g>
</svg>
